<?xml version="1.0" encoding="utf-8"?>
<!-- Generator: Adobe Illustrator 17.1.0, SVG Export Plug-In . SVG Version: 6.00 Build 0)  -->
<!DOCTYPE svg PUBLIC "-//W3C//DTD SVG 1.1//EN" "http://www.w3.org/Graphics/SVG/1.1/DTD/svg11.dtd">
<svg version="1.1" id="Calque_1" xmlns="http://www.w3.org/2000/svg" xmlns:xlink="http://www.w3.org/1999/xlink" x="0px" y="0px"
	 viewBox="0 0 50 50" enable-background="new 0 0 50 50" xml:space="preserve">
<title>a</title>
<g>
	<path fill="#FFFFFF" d="M7.5,6.2c0-2.1,1.7-3.8,3.8-3.8h6.2V0h-6.2C7.8,0,5,2.8,5,6.2v6.2h2.5V6.2z"/>
	<path fill="#FFFFFF" d="M38.8,0h-6.2v2.5h6.2c2.1,0,3.8,1.7,3.8,3.8v6.2H45V6.2C45,2.8,42.2,0,38.8,0z"/>
	<path fill="#FFFFFF" d="M7.5,33.8v-6.3H5v6.3c0,3.5,2.8,6.2,6.2,6.2h6.2v-2.5h-6.2C9.2,37.6,7.5,35.9,7.5,33.8z"/>
	<path fill="#FFFFFF" d="M42.5,33.8c0,2.1-1.7,3.8-3.8,3.8h-6.2v2.5h6.2c3.5,0,6.2-2.8,6.2-6.2v-6.2h-2.5V33.8z"/>
	<path fill="#FFFFFF" d="M11.2,13.1v4.2c0,2.1,1.7,3.7,3.8,3.7h3.8c2.1,0,3.8-1.7,3.8-3.8v-3.5h5v3.5c0,2.1,1.7,3.7,3.8,3.7H35
		c2.1,0,3.8-1.7,3.8-3.8v-4.2c0-1-0.8-1.9-1.9-1.9H13.1C12.1,11.2,11.2,12.1,11.2,13.1z M36.2,13.8v3.5c0,0.7-0.6,1.2-1.2,1.2h-3.8
		c-0.7,0-1.2-0.6-1.2-1.2v-3.5H36.2z M13.8,13.8H20v3.5c0,0.7-0.6,1.2-1.2,1.2H15c-0.7,0-1.2-0.6-1.2-1.2V13.8z"/>
	<polygon fill="#FFFFFF" points="23.8,15 23.8,25 28.8,25 28.8,22.5 26.2,22.5 26.2,15 	"/>
	<polygon fill="#FFFFFF" points="16.2,27.5 16.2,32.5 33.8,32.5 33.8,27.5 31.2,27.5 31.2,30 18.8,30 18.8,27.5 	"/>
</g>
</svg>
